<svg width="255" height="75" viewBox="0 0 255 75" fill="none" xmlns="http://www.w3.org/2000/svg">
<path d="M165.046 44.5493L163.014 56.2444H159.977L162.009 44.5493H165.046ZM172.515 44.5493L166.365 51.8668H163.252L163.381 48.9917H165.284L168.494 44.5493H172.515ZM166.764 56.2444L164.797 51.2075L167.553 49.7807L170.688 56.2444H166.764Z" fill="white"/>
<path d="M148.184 50.5806L148.217 50.3536C148.303 49.5249 148.501 48.7467 148.811 48.0189C149.128 47.2839 149.546 46.639 150.065 46.0841C150.591 45.5221 151.207 45.0861 151.913 44.7763C152.627 44.4592 153.426 44.3115 154.313 44.3331C155.156 44.3475 155.884 44.5169 156.496 44.8411C157.109 45.1654 157.609 45.6013 157.999 46.149C158.395 46.6966 158.672 47.3235 158.831 48.0297C158.997 48.7359 159.043 49.4817 158.971 50.2671L158.95 50.5049C158.856 51.3264 158.647 52.101 158.323 52.8288C158.006 53.5494 157.584 54.1871 157.058 54.7419C156.539 55.2896 155.923 55.7183 155.21 56.0282C154.497 56.338 153.704 56.4821 152.832 56.4605C152.003 56.4461 151.279 56.2804 150.659 55.9633C150.04 55.6391 149.535 55.2067 149.146 54.6663C148.757 54.1186 148.483 53.4953 148.325 52.7964C148.166 52.0974 148.119 51.3588 148.184 50.5806ZM151.254 50.3536L151.232 50.5914C151.196 50.9373 151.185 51.3084 151.2 51.7047C151.214 52.0938 151.276 52.4649 151.384 52.818C151.499 53.1711 151.686 53.4593 151.946 53.6827C152.205 53.9061 152.562 54.025 153.016 54.0394C153.499 54.0538 153.913 53.9565 154.259 53.7475C154.605 53.5386 154.889 53.2575 155.113 52.9045C155.336 52.5442 155.513 52.155 155.642 51.7371C155.772 51.312 155.858 50.8976 155.902 50.4941L155.923 50.2671C155.952 49.9212 155.959 49.5501 155.945 49.1538C155.938 48.7503 155.876 48.372 155.761 48.0189C155.646 47.6586 155.459 47.3632 155.199 47.1326C154.94 46.902 154.583 46.7795 154.129 46.7651C153.646 46.7435 153.232 46.8444 152.886 47.0677C152.54 47.2839 152.256 47.5721 152.032 47.9324C151.809 48.2927 151.632 48.6854 151.503 49.1106C151.38 49.5357 151.297 49.9501 151.254 50.3536Z" fill="white"/>
<path d="M134.457 51.8344L130.966 44.5601L134.587 44.5493L136.23 48.9593H138.5L137.635 51.8344H134.457ZM135.949 51.4129L132.566 56.2444H128.75L133.625 49.824L135.949 51.4129ZM141.202 44.5493L139.17 56.2444H136.132L138.165 44.5493H141.202ZM148.595 44.5493L142.607 51.8344H139.278L139.418 48.9593H141.483L144.65 44.5493H148.595ZM142.91 56.2444L141.148 51.2075L143.839 49.7807L146.509 56.2444H142.91Z" fill="white"/>
<path d="M122.395 54.7636L127.129 44.5493H130.479L123.627 58.017C123.425 58.4421 123.194 58.8349 122.935 59.1952C122.683 59.5627 122.395 59.8797 122.07 60.1463C121.753 60.4201 121.389 60.6291 120.979 60.7732C120.575 60.9246 120.121 61.0002 119.617 61.0002C119.365 61.0002 119.12 60.9786 118.882 60.9354C118.644 60.8921 118.406 60.8417 118.168 60.784L118.385 58.4818C118.464 58.489 118.543 58.4962 118.622 58.5034C118.694 58.5106 118.766 58.5142 118.838 58.5142C119.199 58.5214 119.516 58.4782 119.79 58.3845C120.071 58.298 120.316 58.1539 120.525 57.9522C120.734 57.7576 120.921 57.5018 121.087 57.1847L122.395 54.7636ZM122.881 44.5493L123.897 53.1855L123.756 56.3308L121.724 56.5686L119.725 44.5493H122.881Z" fill="white"/>
<path d="M111.467 46.9703L109.078 60.7406H106.03L108.84 44.5491H111.651L111.467 46.9703ZM118.06 50.2021L118.028 50.4291C117.941 51.1353 117.776 51.8486 117.531 52.5692C117.293 53.2898 116.965 53.9491 116.547 54.5472C116.129 55.1381 115.614 55.6137 115.001 55.974C114.389 56.3271 113.668 56.4928 112.84 56.4712C112.112 56.4496 111.507 56.2586 111.024 55.8983C110.541 55.538 110.163 55.0768 109.889 54.5148C109.615 53.9455 109.424 53.333 109.316 52.6773C109.208 52.0216 109.165 51.3947 109.186 50.7966L109.262 50.1913C109.37 49.5356 109.557 48.8618 109.824 48.1701C110.091 47.4711 110.437 46.8298 110.862 46.2461C111.287 45.6552 111.795 45.1832 112.386 44.8302C112.977 44.4699 113.658 44.3005 114.429 44.3221C115.228 44.3438 115.881 44.5347 116.385 44.895C116.897 45.2553 117.286 45.7237 117.552 46.3001C117.819 46.8766 117.985 47.5071 118.049 48.1917C118.122 48.869 118.125 49.5392 118.06 50.2021ZM114.991 50.4183L115.023 50.1913C115.052 49.8742 115.066 49.5248 115.066 49.1428C115.066 48.7537 115.023 48.3826 114.937 48.0295C114.85 47.6765 114.692 47.381 114.461 47.1432C114.23 46.9054 113.899 46.7793 113.467 46.7649C113.027 46.7433 112.641 46.8118 112.31 46.9703C111.979 47.1288 111.698 47.3522 111.467 47.6404C111.244 47.9215 111.06 48.2421 110.916 48.6024C110.772 48.9627 110.667 49.3338 110.602 49.7157L110.386 51.2289C110.35 51.6685 110.379 52.1044 110.473 52.5368C110.566 52.9619 110.75 53.315 111.024 53.596C111.305 53.8771 111.708 54.0248 112.234 54.0392C112.71 54.0464 113.113 53.9383 113.445 53.7149C113.776 53.4916 114.047 53.1961 114.256 52.8286C114.472 52.4539 114.638 52.054 114.753 51.6289C114.868 51.2037 114.947 50.8002 114.991 50.4183Z" fill="white"/>
<path d="M99.9989 44.5493L97.9668 56.2444H94.9296L96.9616 44.5493H99.9989ZM107.468 44.5493L101.318 51.8668H98.2046L98.3343 48.9917H100.237L103.447 44.5493H107.468ZM101.717 56.2444L99.7503 51.2075L102.506 49.7807L105.641 56.2444H101.717Z" fill="white"/>
<path d="M235.173 25.8788L240.123 18.7234H243.247L241.215 30.4185H238.167L239.421 23.2523L234.47 30.4185H231.347L233.379 18.7234H236.416L235.173 25.8788ZM240.556 14.0216L242.696 14.0108C242.66 14.7026 242.462 15.2898 242.101 15.7726C241.748 16.2554 241.287 16.6193 240.718 16.8643C240.149 17.1021 239.529 17.2138 238.859 17.1994C237.886 17.185 237.075 16.9003 236.427 16.3455C235.778 15.7906 235.45 15.0088 235.443 14L237.583 14.0216C237.576 14.454 237.67 14.8034 237.864 15.0701C238.066 15.3367 238.401 15.4736 238.87 15.4808C239.338 15.488 239.716 15.3583 240.004 15.0917C240.293 14.8251 240.476 14.4684 240.556 14.0216Z" fill="white"/>
<path d="M216.971 22.1932L220.095 22.204C220.902 22.2257 221.648 22.3878 222.332 22.6904C223.017 22.9931 223.557 23.4398 223.953 24.0307C224.35 24.6144 224.519 25.3494 224.462 26.2357C224.418 26.9563 224.235 27.5832 223.91 28.1164C223.586 28.6425 223.164 29.0784 222.646 29.4243C222.134 29.763 221.565 30.0152 220.938 30.1809C220.311 30.3466 219.673 30.4259 219.025 30.4187H213.664L215.685 18.7236H218.733L217.122 27.9975L219.1 28.0083C219.475 28.0011 219.828 27.9363 220.16 27.8138C220.491 27.6841 220.772 27.4931 221.003 27.2409C221.233 26.9815 221.381 26.6536 221.446 26.2573C221.496 25.9114 221.467 25.6232 221.359 25.3926C221.259 25.1548 221.089 24.9747 220.851 24.8522C220.621 24.7225 220.343 24.6504 220.019 24.636L216.55 24.6252L216.971 22.1932ZM230.644 18.7236L228.612 30.4187H225.564L227.596 18.7236H230.644Z" fill="white"/>
<path d="M210.291 23.4471L209.87 25.8682H204.076L204.498 23.4471H210.291ZM206.346 18.7236L204.314 30.4187H201.277L203.309 18.7236H206.346ZM213.145 18.7236L211.113 30.4187H208.065L210.097 18.7236H213.145Z" fill="white"/>
<path d="M193.851 21.1446L191.462 34.9149H188.414L191.225 18.7234H194.035L193.851 21.1446ZM200.444 24.3764L200.412 24.6034C200.326 25.3096 200.16 26.0229 199.915 26.7435C199.677 27.4641 199.349 28.1234 198.931 28.7215C198.513 29.3124 197.998 29.788 197.386 30.1483C196.773 30.5014 196.052 30.6671 195.224 30.6455C194.496 30.6239 193.891 30.4329 193.408 30.0726C192.925 29.7123 192.547 29.2512 192.273 28.6891C191.999 28.1198 191.808 27.5073 191.7 26.8516C191.592 26.1959 191.549 25.569 191.57 24.9709L191.646 24.3656C191.754 23.7099 191.942 23.0361 192.208 22.3444C192.475 21.6454 192.821 21.0041 193.246 20.4204C193.671 19.8295 194.179 19.3576 194.77 19.0045C195.361 18.6442 196.042 18.4748 196.813 18.4965C197.613 18.5181 198.265 18.709 198.769 19.0693C199.281 19.4296 199.67 19.898 199.936 20.4745C200.203 21.0509 200.369 21.6814 200.434 22.366C200.506 23.0433 200.509 23.7135 200.444 24.3764ZM197.375 24.5926L197.407 24.3656C197.436 24.0486 197.45 23.6991 197.45 23.3172C197.45 22.928 197.407 22.5569 197.321 22.2039C197.234 21.8508 197.076 21.5553 196.845 21.3175C196.615 21.0798 196.283 20.9537 195.851 20.9392C195.411 20.9176 195.026 20.9861 194.694 21.1446C194.363 21.3031 194.082 21.5265 193.851 21.8147C193.628 22.0958 193.444 22.4164 193.3 22.7767C193.156 23.137 193.051 23.5081 192.986 23.89L192.77 25.4032C192.734 25.8428 192.763 26.2788 192.857 26.7111C192.95 27.1362 193.134 27.4893 193.408 27.7704C193.689 28.0514 194.092 28.1991 194.619 28.2135C195.094 28.2207 195.498 28.1126 195.829 27.8893C196.161 27.6659 196.431 27.3704 196.64 27.0029C196.856 26.6282 197.022 26.2283 197.137 25.8032C197.252 25.378 197.332 24.9745 197.375 24.5926Z" fill="white"/>
<path d="M182.016 28.9379L186.75 18.7236H190.1L183.248 32.1913C183.046 32.6165 182.815 33.0092 182.556 33.3695C182.304 33.737 182.016 34.054 181.691 34.3206C181.374 34.5945 181.01 34.8034 180.6 34.9476C180.196 35.0989 179.742 35.1745 179.238 35.1745C178.985 35.1745 178.74 35.1529 178.503 35.1097C178.265 35.0664 178.027 35.016 177.789 34.9584L178.005 32.6561C178.085 32.6633 178.164 32.6705 178.243 32.6777C178.315 32.6849 178.387 32.6885 178.459 32.6885C178.82 32.6957 179.137 32.6525 179.411 32.5588C179.692 32.4723 179.937 32.3282 180.146 32.1265C180.355 31.9319 180.542 31.6761 180.708 31.359L182.016 28.9379ZM182.502 18.7236L183.518 27.3598L183.377 30.5052L181.345 30.743L179.346 18.7236H182.502Z" fill="white"/>
<path d="M175.13 18.7236L173.098 30.4187H170.05L172.082 18.7236H175.13ZM178.784 18.7236L178.362 21.134H168.062L168.483 18.7236H178.784Z" fill="white"/>
<path d="M162.592 27.7812L163.414 22.539C163.45 22.2219 163.435 21.9265 163.371 21.6527C163.306 21.3789 163.172 21.1627 162.971 21.0042C162.776 20.8384 162.499 20.7483 162.138 20.7339C161.814 20.7267 161.522 20.7844 161.263 20.9069C161.011 21.0222 160.802 21.1915 160.636 21.4149C160.47 21.6311 160.355 21.8905 160.29 22.1931L157.242 22.2147C157.278 21.5662 157.458 21.0078 157.782 20.5394C158.114 20.0638 158.532 19.6747 159.036 19.372C159.541 19.0694 160.088 18.846 160.679 18.7019C161.277 18.5578 161.861 18.4929 162.43 18.5073C163.244 18.5217 163.969 18.6911 164.603 19.0153C165.244 19.3396 165.734 19.8044 166.073 20.4097C166.419 21.0078 166.548 21.7355 166.462 22.593L165.651 27.6083C165.586 28.0262 165.536 28.4658 165.5 28.927C165.464 29.3809 165.529 29.8133 165.694 30.224L165.673 30.4186L162.69 30.4294C162.553 30.0042 162.484 29.5683 162.484 29.1215C162.491 28.6676 162.527 28.2208 162.592 27.7812ZM163.76 23.2956L163.468 25.0574L161.922 25.0466C161.612 25.0538 161.302 25.0971 160.993 25.1763C160.69 25.2484 160.409 25.3637 160.15 25.5222C159.89 25.6735 159.674 25.8717 159.501 26.1167C159.335 26.3617 159.231 26.6607 159.188 27.0138C159.152 27.266 159.177 27.493 159.263 27.6948C159.35 27.8893 159.483 28.0442 159.663 28.1595C159.851 28.2748 160.074 28.3361 160.333 28.3433C160.701 28.3505 161.061 28.282 161.414 28.1379C161.767 27.9866 162.074 27.774 162.333 27.5002C162.592 27.2264 162.772 26.9093 162.873 26.549L163.522 27.9001C163.349 28.3037 163.129 28.6748 162.863 29.0134C162.603 29.3521 162.304 29.6475 161.965 29.8997C161.627 30.1447 161.256 30.3321 160.852 30.4618C160.449 30.5987 160.016 30.6636 159.555 30.6564C158.914 30.6419 158.323 30.4906 157.782 30.2024C157.249 29.907 156.824 29.507 156.507 29.0026C156.197 28.491 156.057 27.8965 156.085 27.2192C156.114 26.4554 156.305 25.8212 156.658 25.3168C157.011 24.8052 157.465 24.4017 158.02 24.1063C158.582 23.8108 159.191 23.6019 159.847 23.4794C160.51 23.3497 161.166 23.2848 161.814 23.2848L163.76 23.2956Z" fill="white"/>
<path d="M148.541 21.1446L146.152 34.9149H143.104L145.914 18.7234H148.725L148.541 21.1446ZM155.134 24.3764L155.102 24.6034C155.015 25.3096 154.85 26.0229 154.605 26.7435C154.367 27.4641 154.039 28.1234 153.621 28.7215C153.203 29.3124 152.688 29.788 152.075 30.1483C151.463 30.5014 150.742 30.6671 149.914 30.6455C149.186 30.6239 148.581 30.4329 148.098 30.0726C147.615 29.7123 147.237 29.2512 146.963 28.6891C146.689 28.1198 146.498 27.5073 146.39 26.8516C146.282 26.1959 146.239 25.569 146.26 24.9709L146.336 24.3656C146.444 23.7099 146.631 23.0361 146.898 22.3444C147.165 21.6454 147.51 21.0041 147.936 20.4204C148.361 19.8295 148.869 19.3576 149.46 19.0045C150.051 18.6442 150.731 18.4748 151.503 18.4965C152.302 18.5181 152.954 18.709 153.459 19.0693C153.971 19.4296 154.36 19.898 154.626 20.4745C154.893 21.0509 155.059 21.6814 155.123 22.366C155.196 23.0433 155.199 23.7135 155.134 24.3764ZM152.065 24.5926L152.097 24.3656C152.126 24.0486 152.14 23.6991 152.14 23.3172C152.14 22.928 152.097 22.5569 152.011 22.2039C151.924 21.8508 151.766 21.5553 151.535 21.3175C151.304 21.0798 150.973 20.9537 150.541 20.9392C150.101 20.9176 149.715 20.9861 149.384 21.1446C149.053 21.3031 148.772 21.5265 148.541 21.8147C148.318 22.0958 148.134 22.4164 147.99 22.7767C147.846 23.137 147.741 23.5081 147.676 23.89L147.46 25.4032C147.424 25.8428 147.453 26.2788 147.547 26.7111C147.64 27.1362 147.824 27.4893 148.098 27.7704C148.379 28.0514 148.782 28.1991 149.308 28.2135C149.784 28.2207 150.187 28.1126 150.519 27.8893C150.85 27.6659 151.121 27.3704 151.33 27.0029C151.546 26.6282 151.711 26.2283 151.827 25.8032C151.942 25.378 152.021 24.9745 152.065 24.5926Z" fill="white"/>
<path d="M137.775 30.6348C136.976 30.6204 136.255 30.4691 135.614 30.1808C134.972 29.8854 134.435 29.4819 134.003 28.9703C133.578 28.4586 133.265 27.8642 133.063 27.1868C132.861 26.5095 132.789 25.7817 132.847 25.0034L132.89 24.5603C132.976 23.746 133.174 22.9714 133.484 22.2364C133.794 21.5014 134.209 20.8529 134.727 20.2908C135.246 19.7216 135.859 19.2784 136.565 18.9614C137.278 18.6371 138.071 18.4858 138.943 18.5074C139.757 18.5218 140.452 18.6875 141.029 19.0046C141.605 19.3217 142.07 19.7468 142.423 20.28C142.776 20.8133 143.018 21.4222 143.147 22.1067C143.277 22.7841 143.302 23.4938 143.223 24.236L143.05 25.5331H134.014L134.349 23.4578L140.315 23.4686L140.369 23.1984C140.427 22.8021 140.409 22.4346 140.315 22.0959C140.222 21.75 140.045 21.4726 139.786 21.2636C139.526 21.0547 139.181 20.943 138.748 20.9286C138.251 20.9141 137.833 21.0186 137.494 21.242C137.156 21.4654 136.878 21.7608 136.662 22.1283C136.446 22.4958 136.28 22.8957 136.165 23.3281C136.05 23.7532 135.967 24.164 135.916 24.5603L135.873 24.9926C135.837 25.3745 135.848 25.7565 135.905 26.1384C135.963 26.5131 136.075 26.8517 136.241 27.1544C136.413 27.457 136.648 27.702 136.943 27.8894C137.246 28.0767 137.624 28.1776 138.078 28.192C138.655 28.2064 139.184 28.0947 139.667 27.857C140.157 27.612 140.596 27.2877 140.986 26.8842L142.347 28.5271C142.023 29.0171 141.609 29.4206 141.104 29.7377C140.607 30.0475 140.07 30.2745 139.494 30.4186C138.918 30.57 138.345 30.642 137.775 30.6348Z" fill="white"/>
<path d="M129.907 18.7236L127.875 30.4187H124.827L126.859 18.7236H129.907ZM133.56 18.7236L133.138 21.134H122.838L123.259 18.7236H133.56Z" fill="white"/>
<path d="M113.726 25.879L118.676 18.7236H121.8L119.768 30.4187H116.72L117.974 23.2525L113.023 30.4187H109.9L111.932 18.7236H114.969L113.726 25.879Z" fill="white"/>
<path d="M107.857 14.6812L107.403 17.2212H99.7935L100.237 14.6812H107.857ZM110.094 14.6812L107.37 30.4187H104.203L106.927 14.6812H110.094ZM99.8367 14.6812H103.014L101.253 22.5823C101.094 23.3101 100.918 24.0523 100.723 24.8089C100.536 25.5583 100.294 26.2717 99.9988 26.9491C99.7106 27.6264 99.3431 28.2317 98.8964 28.7649C98.4568 29.291 97.9128 29.7053 97.2642 30.0079C96.6157 30.3034 95.8411 30.4403 94.9404 30.4187H94L94.3567 27.8894L94.7134 27.8678C95.297 27.8174 95.7834 27.6408 96.1726 27.3382C96.5689 27.0355 96.8931 26.6536 97.1453 26.1925C97.4048 25.7313 97.6101 25.2305 97.7614 24.69C97.92 24.1424 98.0461 23.602 98.1397 23.0687C98.2334 22.5283 98.3235 22.0383 98.41 21.5987L99.8367 14.6812Z" fill="white"/>
<g clip-path="url(#clip0_18379_7694)">
<path d="M45.7101 51.9178L67.2324 36.7502L37.5085 31.3408L15.6479 45.6627L45.7101 51.9178Z" fill="#F4D177"/>
<path d="M45.2911 36.86L23.7688 23.2318L53.4946 18.3701L75.2187 31.0682L45.2911 36.86Z" fill="#FF6666"/>
<path d="M37.6372 25.0956L20.0159 13.9387L44.3533 9.95703L62.215 20.2061L37.6372 25.0956Z" fill="#02A9F4"/>
<path d="M47.3223 52.8633C47.0244 52.3924 46.6171 52.0638 46.1675 51.9793L15.9843 46.5698C15.9843 46.5698 17.2775 50.3095 17.2314 52.7979C17.1967 54.8138 16.0015 58.6282 16.0015 58.6282L46.1828 64.0376C46.6325 64.1221 47.0398 63.9395 47.3359 63.5784C47.6317 63.217 47.8162 62.679 47.8143 62.0525L47.8048 54.562C47.8047 53.9356 47.6201 53.3301 47.3223 52.8633ZM75.0169 32.0539L44.8356 36.9137C44.384 36.9907 43.9767 37.2846 43.6788 37.7092C43.3662 38.1567 43.198 38.6892 43.1966 39.2351L43.1889 45.9684C43.1869 46.5334 43.3696 47.0158 43.6655 47.3366C43.9613 47.6633 44.3688 47.8266 44.8184 47.7517L75.0016 42.8899C75.0016 42.8899 74.135 40.7416 73.889 37.3345C73.7275 35.1035 75.0169 32.0539 75.0169 32.0539ZM37.251 34.014L61.9594 30.0304C61.9594 30.0304 60.8737 28.2048 60.7699 25.6683C60.6874 23.6603 61.9729 21.1582 61.9729 21.1582L37.2625 25.1398C36.8955 25.2014 36.561 25.4435 36.317 25.7893C36.0729 26.1333 35.923 26.5753 35.923 27.0383L35.9154 32.5496C35.9134 33.0088 36.0634 33.4066 36.3055 33.6718C36.5477 33.9371 36.882 34.0696 37.251 34.014Z" fill="#FFF3E4"/>
<path d="M53.8757 46.1631L46.8015 51.1487C46.6529 51.0871 46.4983 51.0409 46.3403 51.0108L16.1571 45.6012C15.6325 45.5051 15.1118 45.8617 15.0156 46.3959C14.9928 46.5232 14.9952 46.6537 15.0228 46.78C15.0505 46.9063 15.1027 47.0259 15.1766 47.132C15.2505 47.2381 15.3446 47.3286 15.4535 47.3983C15.5624 47.468 15.684 47.5156 15.8112 47.5382L45.9848 52.9459C46.1097 52.9699 46.3056 53.0976 46.4921 53.3927C46.7015 53.7194 46.8207 54.1449 46.8207 54.5629L46.8303 62.0553C46.8322 62.4213 46.7362 62.7577 46.5747 62.9547C46.4593 63.0922 46.394 63.0738 46.3556 63.0689L16.1744 57.6596C15.6517 57.5626 15.129 57.92 15.0329 58.4543C15.01 58.5815 15.0125 58.712 15.0401 58.8384C15.0677 58.9647 15.1199 59.0843 15.1938 59.1904C15.2677 59.2965 15.3618 59.387 15.4707 59.4567C15.5796 59.5264 15.7012 59.5739 15.8285 59.5966L46.0002 65.004C46.1367 65.0301 46.2711 65.0426 46.4037 65.0426C46.9334 65.0426 47.4343 64.8425 47.8447 64.4676L68.37 49.8041C68.9581 49.3871 69.3501 48.5396 69.348 47.4962L69.3434 43.8013L53.8757 46.1631Z" fill="#FBAC0F"/>
<path d="M74.8459 41.9185L44.657 46.7811C44.5859 46.7956 44.4995 46.7935 44.388 46.6696C44.2535 46.5216 44.1709 46.2612 44.1727 45.9692L44.1803 39.2348C44.1803 38.8986 44.2899 38.5488 44.484 38.274C44.6377 38.056 44.826 37.9128 44.9913 37.8849L75.1726 33.025C75.3002 33.0047 75.4226 32.9593 75.5327 32.8915C75.6428 32.8238 75.7384 32.7349 75.8141 32.6302C75.8898 32.5254 75.9441 32.4067 75.9738 32.2809C76.0036 32.155 76.0082 32.0246 75.9874 31.897C75.9009 31.3609 75.3859 30.989 74.8614 31.0822C74.8614 31.0822 50.726 35.0078 44.1089 36.111L40.0771 33.5581L36.2666 34.1637L34.7639 30.1938L23.7688 23.2314C22.8214 23.51 21.7049 24.7822 21.6626 26.2157L21.653 33.001C21.653 33.9368 22.043 34.6978 22.631 35.0725L43.3236 48.3415C43.3156 48.3364 43.3097 48.3313 43.3021 48.3262C43.6846 48.6057 44.1336 48.7536 44.6011 48.7536C44.7241 48.7536 44.849 48.7439 44.9739 48.7229L75.1571 43.8609C75.2848 43.8405 75.4071 43.7952 75.5172 43.7274C75.6273 43.6597 75.7229 43.5708 75.7986 43.4661C75.8743 43.3613 75.9286 43.2426 75.9583 43.1168C75.9881 42.991 75.9927 42.8606 75.9719 42.733C75.8874 42.1961 75.3667 41.8319 74.8459 41.9185Z" fill="#E63431"/>
<path d="M61.8039 29.0589L37.032 33.0087C36.9666 32.9376 36.8994 32.781 36.8994 32.5504L36.9071 27.0381C36.9071 26.796 36.984 26.5492 37.1204 26.3559C37.2358 26.1926 37.3568 26.1214 37.4183 26.1108L62.1286 22.1293C62.2563 22.1088 62.3786 22.0634 62.4887 21.9957C62.5987 21.9279 62.6943 21.839 62.77 21.7343C62.8457 21.6295 62.9 21.5108 62.9297 21.385C62.9595 21.2593 62.9642 21.1288 62.9435 21.0013C62.8568 20.4642 62.3401 20.098 61.8173 20.1864C61.8173 20.1864 36.685 24.2737 36.4909 24.3694L20.0159 13.9385C19.2415 14.1652 18.3268 15.2068 18.2922 16.379L18.2345 22.1832C18.2345 22.9538 18.5536 23.5764 19.0358 23.8839C19.0358 23.8839 35.7901 34.6799 36.4941 34.9193C36.8813 35.0509 37.2991 35.0015 37.4067 34.9851L62.1152 31.0016C62.2428 30.9811 62.3652 30.9357 62.4752 30.8679C62.5853 30.8002 62.6809 30.7113 62.7566 30.6066C62.8322 30.5018 62.8865 30.3831 62.9163 30.2573C62.946 30.1315 62.9507 30.0011 62.93 29.8735C62.8434 29.3364 62.3283 28.9704 61.8039 29.0589Z" fill="#006AB3"/>
</g>
<defs>
<clipPath id="clip0_18379_7694">
<rect width="61" height="61" fill="white" transform="translate(15 7)"/>
</clipPath>
</defs>
</svg>
