<?xml version="1.0" ?><svg xmlns="http://www.w3.org/2000/svg" xmlns:xlink="http://www.w3.org/1999/xlink" version="1.1" viewBox="0 0 64 64" fill="#19AB4A" style="enable-background:new 0 0 64 64;" xml:space="preserve"><g id="flag"/><g id="dwarf"/><g id="weapon"/><g id="magic_potion"/><g id="magic_fire"/><g id="elf"/><g id="crown"/><g id="tower"/><g id="magic_broom"/><g id="knight"/><g id="magic_book"/><g id="unicorn"/><g id="wizard"/><g id="witch"/><g id="magic_wand"/><g id="queen"/><g id="forest"><path d="M54,41c-1.5,0-2.9,0.5-4,1.3v-3.3c6.1-0.5,11-5.7,11-11.9c0-8.7-5.5-16-12-16c-2.9,0-5.6,1.4-7.8,3.9C39,11.3,35.7,9,32,9   s-7,2.3-9.2,5.9C20.6,12.4,17.9,11,15,11C8.5,11,3,18.3,3,27c0,6.3,4.9,11.4,11,11.9v3.3c-1.1-0.8-2.5-1.3-4-1.3c-3.9,0-7,3.1-7,7   s3.1,7,7,7h44c3.9,0,7-3.1,7-7S57.9,41,54,41z M29.8,44.8C28.9,43.7,27.5,43,26,43c-1.5,0-3,0.7-3.9,1.9c-1.8-1.1-4.1-1.2-5.9-0.2   c-0.1-0.1-0.2-0.3-0.2-0.4c0-0.1,0.1-0.2,0.1-0.3v-5.1c3.4-0.3,6.4-1.9,8.5-4.6c1.8,1.5,4.1,2.4,6.5,2.6v7.2   C30.5,44.3,30.1,44.5,29.8,44.8z M20.4,28.9c0.1,0,0.2-0.1,0.2-0.2c0.5,1.6,1.3,3,2.4,4.2c-1.7,2.3-4.2,3.7-7,4v-5c0,0,0,0,0,0   v-1.3L20.4,28.9z M33,36.9c2.5-0.2,4.7-1.1,6.5-2.6c2.1,2.7,5.1,4.3,8.5,4.6V44c0,0.1,0,0.2,0.1,0.3c-0.1,0.1-0.2,0.3-0.2,0.4   c-1.8-1-4.2-0.9-5.9,0.2C41,43.7,39.5,43,38,43c-1.5,0-2.9,0.7-3.8,1.8c-0.3-0.3-0.7-0.5-1.2-0.6V36.9z M43.4,28.8   c0.1,0.1,0.1,0.1,0.2,0.2l4.4,1.7V32c0,0,0,0,0,0v5c-2.8-0.3-5.3-1.7-7-4C42,31.7,42.9,30.3,43.4,28.8z M49,13c5.4,0,10,6.4,10,14   c0,5.2-4,9.4-9,9.9v-4.3l4.4-1.7c0.3-0.1,0.5-0.4,0.6-0.7l1-5c0.1-0.5-0.2-1.1-0.8-1.2c-0.5-0.1-1.1,0.2-1.2,0.8l-0.9,4.5L50,30.5   V30v-4c0-0.6-0.4-1-1-1s-1,0.4-1,1v2.5l-3.2-1.3L44,23.8c0,0,0,0,0,0c-0.2-2.5-0.8-4.8-1.7-6.9C44.1,14.4,46.5,13,49,13z M32,11   c3.4,0,6.4,2.5,8.2,6.1c0,0,0,0.1,0.1,0.1c1.1,2.2,1.7,4.9,1.7,7.7c0,5.2-4,9.4-9,9.9v-5c0,0,0,0,0,0v-1.3l4.4-1.7   c0.3-0.1,0.5-0.4,0.6-0.7l1-4c0.1-0.5-0.2-1.1-0.7-1.2c-0.5-0.1-1.1,0.2-1.2,0.7l-0.9,3.5L33,26.5V24c0-0.6-0.4-1-1-1s-1,0.4-1,1v4   v0.5l-3.1-1.3L27,22.8c-0.1-0.5-0.6-0.9-1.2-0.8c-0.5,0.1-0.9,0.6-0.8,1.2l1,5c0.1,0.3,0.3,0.6,0.6,0.7l4.4,1.7v4.3   c-5-0.5-9-4.8-9-9.9c0-2.8,0.6-5.5,1.7-7.7c0,0,0-0.1,0.1-0.1C25.6,13.5,28.6,11,32,11z M5,27c0-7.6,4.6-14,10-14   c2.5,0,4.9,1.4,6.8,3.8c-0.9,2.1-1.5,4.4-1.7,6.9c0,0,0,0,0,0l-0.9,3.5L16,28.5V26c0-0.6-0.4-1-1-1s-1,0.4-1,1v4v0.5l-3.1-1.3   L10,24.8c-0.1-0.5-0.6-0.9-1.2-0.8c-0.5,0.1-0.9,0.6-0.8,1.2l1,5c0.1,0.3,0.3,0.6,0.6,0.7l4.4,1.7v4.3C9,36.4,5,32.2,5,27z M54,53   H10c-2.8,0-5-2.2-5-5s2.2-5,5-5c2.2,0,4.1,1.4,4.8,3.5c0.1,0.3,0.4,0.6,0.7,0.7c0.3,0.1,0.7,0,0.9-0.2c0.5-0.5,1.4-1,2.6-1   c1,0,2,0.4,2.7,1.1c0.2,0.2,0.6,0.3,0.9,0.2c0.3-0.1,0.6-0.3,0.7-0.6c0.5-1.1,1.6-1.8,2.7-1.8c1.3,0,2.4,0.8,2.8,2   c0.1,0.3,0.3,0.5,0.6,0.6c0.3,0.1,0.6,0.1,0.9-0.1c0.2-0.1,0.4-0.4,0.4-0.7c0.1-0.4,0.4-0.9,1.3-0.9s1.2,0.5,1.3,0.9   c0.1,0.2,0.2,0.5,0.4,0.6c0.3,0.2,0.6,0.2,0.9,0.1c0.3-0.1,0.5-0.3,0.6-0.6c0.4-1.2,1.6-2,2.8-2c1.2,0,2.2,0.7,2.7,1.8   c0.1,0.3,0.4,0.5,0.7,0.6c0.3,0.1,0.6,0,0.9-0.2C43,46.4,44,46,45,46c1.2,0,2.1,0.5,2.6,1c0.3,0.2,0.6,0.3,0.9,0.2   c0.3-0.1,0.6-0.3,0.7-0.7c0.6-2.1,2.6-3.5,4.8-3.5c2.8,0,5,2.2,5,5S56.8,53,54,53z"/></g><g id="home_tree"/><g id="king"/><g id="castle"/></svg>